<?xml version="1.0" encoding="UTF-8" standalone="no"?>
<!DOCTYPE svg PUBLIC "-//W3C//DTD SVG 1.1//EN"
 "http://www.w3.org/Graphics/SVG/1.1/DTD/svg11.dtd">
<!-- Generated by graphviz version 14.1.2 (20260124.0452)
 -->
<!-- Title: G Pages: 1 -->
<svg width="501pt" height="953pt"
 viewBox="0.00 0.00 501.00 953.00" xmlns="http://www.w3.org/2000/svg" xmlns:xlink="http://www.w3.org/1999/xlink">
<g id="graph0" class="graph" transform="scale(1 1) rotate(0) translate(4 948.75)">
<title>G</title><style>.edge>path:hover{stroke-width:8}</style>
<polygon fill="white" stroke="none" points="-4,4 -4,-948.75 496.8,-948.75 496.8,4 -4,4"/>
<!-- config -->
<g id="node1" class="node">
<title>config</title><style>.edge>path:hover{stroke-width:8}</style>
<ellipse fill="#85b653" stroke="black" cx="27" cy="-127" rx="27" ry="18"/>
<text xml:space="preserve" text-anchor="middle" x="27" y="-123.12" font-family="Helvetica,sans-Serif" font-size="10.00" fill="#000000">config</text>
</g>
<!-- run_py -->
<g id="node16" class="node">
<title>run_py</title><style>.edge>path:hover{stroke-width:8}</style>
<ellipse fill="#704e92" stroke="black" cx="113" cy="-18" rx="27" ry="18"/>
<text xml:space="preserve" text-anchor="middle" x="113" y="-14.12" font-family="Helvetica,sans-Serif" font-size="10.00" fill="#ffffff">run.py</text>
</g>
<!-- config&#45;&gt;run_py -->
<g id="edge1" class="edge">
<title>config&#45;&gt;run_py</title><style>.edge>path:hover{stroke-width:8}</style>
<path fill="none" stroke="black" d="M49.71,-117.12C75.31,-106.39 113.34,-87.9 113,-73"/>
<path fill="none" stroke="black" d="M113,-72C112.82,-64.06 112.76,-55.45 112.76,-47.52"/>
<polygon fill="#85b653" stroke="black" points="116.26,-47.71 112.8,-37.7 109.26,-47.69 116.26,-47.71"/>
</g>
<!-- flask -->
<g id="node2" class="node">
<title>flask</title><style>.edge>path:hover{stroke-width:8}</style>
<polygon fill="blue" stroke="black" points="300,-440.75 246,-440.75 246,-404.75 300,-404.75 300,-440.75"/>
<text xml:space="preserve" text-anchor="middle" x="273" y="-418.88" font-family="Helvetica,sans-Serif" font-size="10.00" fill="white">flask</text>
</g>
<!-- M1_material -->
<g id="node13" class="node">
<title>M1_material</title><style>.edge>path:hover{stroke-width:8}</style>
<polygon fill="blue" stroke="black" points="179.62,-145 110.38,-145 110.38,-109 179.62,-109 179.62,-145"/>
<text xml:space="preserve" text-anchor="middle" x="145" y="-123.12" font-family="Helvetica,sans-Serif" font-size="10.00" fill="white">M1_material</text>
</g>
<!-- flask&#45;&gt;M1_material -->
<g id="edge2" class="edge">
<title>flask&#45;&gt;M1_material</title><style>.edge>path:hover{stroke-width:8}</style>
<path fill="none" stroke="black" d="M145,-198C137.36,-185.81 136.79,-169.94 138.37,-156.38"/>
<polygon fill="blue" stroke="black" points="141.8,-157.15 139.96,-146.72 134.89,-156.02 141.8,-157.15"/>
</g>
<!-- M1_material_board -->
<g id="node14" class="node">
<title>M1_material_board</title><style>.edge>path:hover{stroke-width:8}</style>
<polygon fill="blue" stroke="black" points="245.12,-217 172.88,-217 172.88,-181 245.12,-181 245.12,-217"/>
<text xml:space="preserve" text-anchor="middle" x="209" y="-200.75" font-family="Helvetica,sans-Serif" font-size="10.00" fill="white">M1_material.</text>
<text xml:space="preserve" text-anchor="middle" x="209" y="-189.5" font-family="Helvetica,sans-Serif" font-size="10.00" fill="white">board</text>
</g>
<!-- flask&#45;&gt;M1_material_board -->
<g id="edge3" class="edge">
<title>flask&#45;&gt;M1_material_board</title><style>.edge>path:hover{stroke-width:8}</style>
<path fill="none" stroke="black" d="M209,-272.88C199.93,-260.22 199.58,-242.88 201.66,-228.3"/>
<polygon fill="blue" stroke="black" points="205.04,-229.29 203.46,-218.82 198.16,-227.99 205.04,-229.29"/>
</g>
<!-- M1_material_board_pages -->
<g id="node15" class="node">
<title>M1_material_board_pages</title><style>.edge>path:hover{stroke-width:8}</style>
<polygon fill="blue" stroke="black" points="309.12,-294.75 236.88,-294.75 236.88,-253 309.12,-253 309.12,-294.75"/>
<text xml:space="preserve" text-anchor="middle" x="273" y="-281.25" font-family="Helvetica,sans-Serif" font-size="10.00" fill="white">M1_material.</text>
<text xml:space="preserve" text-anchor="middle" x="273" y="-270" font-family="Helvetica,sans-Serif" font-size="10.00" fill="white">board.</text>
<text xml:space="preserve" text-anchor="middle" x="273" y="-258.75" font-family="Helvetica,sans-Serif" font-size="10.00" fill="white">pages</text>
</g>
<!-- flask&#45;&gt;M1_material_board_pages -->
<g id="edge4" class="edge">
<title>flask&#45;&gt;M1_material_board_pages</title><style>.edge>path:hover{stroke-width:8}</style>
<path fill="none" stroke="black" d="M273,-330.75C270.98,-322.99 270.27,-314.42 270.22,-306.37"/>
<polygon fill="blue" stroke="black" points="273.72,-306.71 270.52,-296.61 266.72,-306.5 273.72,-306.71"/>
</g>
<!-- flask&#45;&gt;run_py -->
<g id="edge5" class="edge">
<title>flask&#45;&gt;run_py</title><style>.edge>path:hover{stroke-width:8}</style>
<path fill="none" stroke="black" d="M209,-272.88C183.89,-237.84 167.89,-236.53 145,-200"/>
<path fill="none" stroke="black" d="M275.54,-404.51C277.66,-386.15 279.41,-356.4 273,-331.75"/>
<path fill="none" stroke="black" d="M273,-330.75C265.09,-306.39 246.89,-312.05 228,-294.75 218.99,-286.5 216.12,-284.81 209,-274.88"/>
<path fill="none" stroke="black" d="M145,-198C128.74,-172.06 111.4,-173.8 101,-145 95.57,-129.95 98.44,-124.79 101,-109 103.7,-92.35 112.96,-89.87 113,-73"/>
</g>
<!-- flask_app -->
<g id="node3" class="node">
<title>flask_app</title><style>.edge>path:hover{stroke-width:8}</style>
<polygon fill="blue" stroke="black" points="319.88,-872.75 264.12,-872.75 264.12,-836.75 319.88,-836.75 319.88,-872.75"/>
<text xml:space="preserve" text-anchor="middle" x="292" y="-850.88" font-family="Helvetica,sans-Serif" font-size="10.00" fill="white">flask.app</text>
</g>
<!-- flask_app&#45;&gt;flask -->
<g id="edge6" class="edge">
<title>flask_app&#45;&gt;flask</title><style>.edge>path:hover{stroke-width:8}</style>
<path fill="none" stroke="black" d="M278.72,-836.58C242.68,-788.72 143.61,-648.36 112,-512.75 108.37,-497.17 102.62,-489.71 112,-476.75 139.75,-438.4 196.19,-427.32 234.32,-424.38"/>
<polygon fill="blue" stroke="black" points="234.22,-427.89 244,-423.8 233.8,-420.9 234.22,-427.89"/>
</g>
<!-- flask_ctx -->
<g id="node6" class="node">
<title>flask_ctx</title><style>.edge>path:hover{stroke-width:8}</style>
<polygon fill="blue" stroke="black" points="455,-800.75 401,-800.75 401,-764.75 455,-764.75 455,-800.75"/>
<text xml:space="preserve" text-anchor="middle" x="428" y="-778.88" font-family="Helvetica,sans-Serif" font-size="10.00" fill="white">flask.ctx</text>
</g>
<!-- flask_app&#45;&gt;flask_ctx -->
<g id="edge7" class="edge">
<title>flask_app&#45;&gt;flask_ctx</title><style>.edge>path:hover{stroke-width:8}</style>
<path fill="none" stroke="black" d="M330.39,-833.99C349.23,-824.29 371.84,-812.65 390.56,-803.02"/>
<polygon fill="blue" stroke="black" points="328.81,-830.86 321.53,-838.55 332.02,-837.09 328.81,-830.86"/>
<polygon fill="blue" stroke="black" points="392.15,-806.14 399.44,-798.45 388.95,-799.91 392.15,-806.14"/>
</g>
<!-- flask_globals -->
<g id="node7" class="node">
<title>flask_globals</title><style>.edge>path:hover{stroke-width:8}</style>
<polygon fill="blue" stroke="black" points="366.38,-728.75 295.62,-728.75 295.62,-692.75 366.38,-692.75 366.38,-728.75"/>
<text xml:space="preserve" text-anchor="middle" x="331" y="-706.88" font-family="Helvetica,sans-Serif" font-size="10.00" fill="white">flask.globals</text>
</g>
<!-- flask_app&#45;&gt;flask_globals -->
<g id="edge8" class="edge">
<title>flask_app&#45;&gt;flask_globals</title><style>.edge>path:hover{stroke-width:8}</style>
<path fill="none" stroke="black" d="M299.8,-825.35C306.64,-800.45 316.52,-764.46 323.33,-739.69"/>
<polygon fill="blue" stroke="black" points="296.46,-824.31 297.18,-834.88 303.21,-826.16 296.46,-824.31"/>
<polygon fill="blue" stroke="black" points="326.63,-740.89 325.9,-730.32 319.88,-739.04 326.63,-740.89"/>
</g>
<!-- flask_templating -->
<g id="node11" class="node">
<title>flask_templating</title><style>.edge>path:hover{stroke-width:8}</style>
<polygon fill="blue" stroke="black" points="182.5,-512.75 121.5,-512.75 121.5,-476.75 182.5,-476.75 182.5,-512.75"/>
<text xml:space="preserve" text-anchor="middle" x="152" y="-496.5" font-family="Helvetica,sans-Serif" font-size="10.00" fill="white">flask.</text>
<text xml:space="preserve" text-anchor="middle" x="152" y="-485.25" font-family="Helvetica,sans-Serif" font-size="10.00" fill="white">templating</text>
</g>
<!-- flask_app&#45;&gt;flask_templating -->
<g id="edge9" class="edge">
<title>flask_app&#45;&gt;flask_templating</title><style>.edge>path:hover{stroke-width:8}</style>
<path fill="none" stroke="black" d="M281.22,-826.19C255.14,-759.51 188.89,-590.07 162.79,-523.35"/>
<polygon fill="blue" stroke="black" points="277.79,-827.03 284.7,-835.07 284.31,-824.49 277.79,-827.03"/>
<polygon fill="blue" stroke="black" points="166.14,-522.29 159.24,-514.25 159.62,-524.84 166.14,-522.29"/>
</g>
<!-- flask_blueprints -->
<g id="node4" class="node">
<title>flask_blueprints</title><style>.edge>path:hover{stroke-width:8}</style>
<polygon fill="blue" stroke="black" points="393,-512.75 335,-512.75 335,-476.75 393,-476.75 393,-512.75"/>
<text xml:space="preserve" text-anchor="middle" x="364" y="-496.5" font-family="Helvetica,sans-Serif" font-size="10.00" fill="white">flask.</text>
<text xml:space="preserve" text-anchor="middle" x="364" y="-485.25" font-family="Helvetica,sans-Serif" font-size="10.00" fill="white">blueprints</text>
</g>
<!-- flask_blueprints&#45;&gt;flask -->
<g id="edge10" class="edge">
<title>flask_blueprints&#45;&gt;flask</title><style>.edge>path:hover{stroke-width:8}</style>
<path fill="none" stroke="black" d="M341.51,-476.45C330.35,-467.86 316.69,-457.36 304.51,-447.99"/>
<polygon fill="blue" stroke="black" points="306.81,-445.34 296.75,-442.02 302.54,-450.89 306.81,-445.34"/>
</g>
<!-- flask_config -->
<g id="node5" class="node">
<title>flask_config</title><style>.edge>path:hover{stroke-width:8}</style>
<ellipse fill="#53b6b6" stroke="black" cx="240" cy="-494.75" rx="39.2" ry="18"/>
<text xml:space="preserve" text-anchor="middle" x="240" y="-490.88" font-family="Helvetica,sans-Serif" font-size="10.00" fill="#000000">flask.config</text>
</g>
<!-- flask_config&#45;&gt;flask -->
<g id="edge11" class="edge">
<title>flask_config&#45;&gt;flask</title><style>.edge>path:hover{stroke-width:8}</style>
<path fill="none" stroke="black" d="M247.99,-476.8C251.58,-469.18 255.92,-459.98 259.96,-451.4"/>
<polygon fill="#53b6b6" stroke="black" points="263.11,-452.93 264.21,-442.39 256.78,-449.95 263.11,-452.93"/>
</g>
<!-- flask_ctx&#45;&gt;flask -->
<g id="edge12" class="edge">
<title>flask_ctx&#45;&gt;flask</title><style>.edge>path:hover{stroke-width:8}</style>
<path fill="none" stroke="black" d="M483,-709.75C494.45,-647.69 466.53,-628.67 483,-567.75"/>
<path fill="none" stroke="black" d="M449.68,-764.52C463.46,-751.74 479.36,-732.92 483,-711.75"/>
</g>
<!-- flask_ctx&#45;&gt;flask_globals -->
<g id="edge14" class="edge">
<title>flask_ctx&#45;&gt;flask_globals</title><style>.edge>path:hover{stroke-width:8}</style>
<path fill="none" stroke="black" d="M394.86,-757.83C384.95,-750.69 374.09,-742.85 364.18,-735.7"/>
<polygon fill="blue" stroke="black" points="392.64,-760.55 402.8,-763.56 396.73,-754.87 392.64,-760.55"/>
<polygon fill="blue" stroke="black" points="366.42,-733 356.27,-729.98 362.33,-738.67 366.42,-733"/>
</g>
<!-- flask_globals&#45;&gt;flask -->
<g id="edge15" class="edge">
<title>flask_globals&#45;&gt;flask</title><style>.edge>path:hover{stroke-width:8}</style>
<path fill="none" stroke="black" d="M331,-565.75C332.03,-532.88 312.41,-528.19 307,-495.75"/>
<path fill="none" stroke="black" d="M331,-637.75C333.22,-606.72 330.03,-598.85 331,-567.75"/>
</g>
<!-- flask_globals&#45;&gt;flask_blueprints -->
<g id="edge17" class="edge">
<title>flask_globals&#45;&gt;flask_blueprints</title><style>.edge>path:hover{stroke-width:8}</style>
<path fill="none" stroke="black" d="M331,-565.75C331.47,-550.64 337.9,-535.29 344.96,-522.84"/>
<polygon fill="blue" stroke="black" points="347.89,-524.76 350.13,-514.41 341.92,-521.1 347.89,-524.76"/>
</g>
<!-- flask_helpers -->
<g id="node8" class="node">
<title>flask_helpers</title><style>.edge>path:hover{stroke-width:8}</style>
<polygon fill="blue" stroke="black" points="302.75,-584.75 231.25,-584.75 231.25,-548.75 302.75,-548.75 302.75,-584.75"/>
<text xml:space="preserve" text-anchor="middle" x="267" y="-562.88" font-family="Helvetica,sans-Serif" font-size="10.00" fill="white">flask.helpers</text>
</g>
<!-- flask_globals&#45;&gt;flask_helpers -->
<g id="edge19" class="edge">
<title>flask_globals&#45;&gt;flask_helpers</title><style>.edge>path:hover{stroke-width:8}</style>
<path fill="none" stroke="black" d="M331,-637.75C332.31,-619.39 320.27,-603.71 306.29,-591.88"/>
<polygon fill="blue" stroke="black" points="308.68,-589.31 298.63,-585.95 304.4,-594.84 308.68,-589.31"/>
<path fill="none" stroke="black" d="M330.32,-692.47C329.92,-678.28 329.72,-657.69 331,-639.75"/>
</g>
<!-- flask_json -->
<g id="node9" class="node">
<title>flask_json</title><style>.edge>path:hover{stroke-width:8}</style>
<polygon fill="blue" stroke="black" points="455,-584.75 397,-584.75 397,-548.75 455,-548.75 455,-584.75"/>
<text xml:space="preserve" text-anchor="middle" x="426" y="-562.88" font-family="Helvetica,sans-Serif" font-size="10.00" fill="white">flask.json</text>
</g>
<!-- flask_globals&#45;&gt;flask_json -->
<g id="edge20" class="edge">
<title>flask_globals&#45;&gt;flask_json</title><style>.edge>path:hover{stroke-width:8}</style>
<path fill="none" stroke="black" d="M331,-637.75C333.04,-609.23 361.09,-591 386.18,-580.32"/>
<polygon fill="blue" stroke="black" points="387.24,-583.67 395.26,-576.75 384.68,-577.15 387.24,-583.67"/>
</g>
<!-- flask_globals&#45;&gt;flask_templating -->
<g id="edge21" class="edge">
<title>flask_globals&#45;&gt;flask_templating</title><style>.edge>path:hover{stroke-width:8}</style>
<path fill="none" stroke="black" d="M315.55,-692.6C294.17,-668.73 254.51,-624 222,-584.75 204.7,-563.87 185.72,-539.64 171.89,-521.75"/>
<polygon fill="blue" stroke="black" points="174.96,-520 166.09,-514.22 169.42,-524.27 174.96,-520"/>
</g>
<!-- flask_wrappers -->
<g id="node12" class="node">
<title>flask_wrappers</title><style>.edge>path:hover{stroke-width:8}</style>
<polygon fill="blue" stroke="black" points="438.88,-656.75 359.12,-656.75 359.12,-620.75 438.88,-620.75 438.88,-656.75"/>
<text xml:space="preserve" text-anchor="middle" x="399" y="-634.88" font-family="Helvetica,sans-Serif" font-size="10.00" fill="white">flask.wrappers</text>
</g>
<!-- flask_globals&#45;&gt;flask_wrappers -->
<g id="edge22" class="edge">
<title>flask_globals&#45;&gt;flask_wrappers</title><style>.edge>path:hover{stroke-width:8}</style>
<path fill="none" stroke="black" d="M355.64,-684.39C361.75,-678.1 368.3,-671.36 374.41,-665.07"/>
<polygon fill="blue" stroke="black" points="353.32,-681.75 348.86,-691.36 358.34,-686.63 353.32,-681.75"/>
<polygon fill="blue" stroke="black" points="376.87,-667.55 381.33,-657.94 371.85,-662.67 376.87,-667.55"/>
</g>
<!-- flask_helpers&#45;&gt;flask -->
<g id="edge23" class="edge">
<title>flask_helpers&#45;&gt;flask</title><style>.edge>path:hover{stroke-width:8}</style>
<path fill="none" stroke="black" d="M307,-493.75C304.5,-478.76 297.63,-463.42 290.72,-450.94"/>
<polygon fill="blue" stroke="black" points="293.84,-449.36 285.76,-442.51 287.81,-452.9 293.84,-449.36"/>
<path fill="none" stroke="black" d="M285.43,-548.41C297.43,-535.02 310.29,-515.49 307,-495.75"/>
</g>
<!-- flask_helpers&#45;&gt;flask_app -->
<g id="edge24" class="edge">
<title>flask_helpers&#45;&gt;flask_app</title><style>.edge>path:hover{stroke-width:8}</style>
<path fill="none" stroke="black" d="M268.51,-584.98C272.66,-632.49 284.31,-765.72 289.47,-824.85"/>
<polygon fill="blue" stroke="black" points="285.98,-825.12 290.34,-834.78 292.96,-824.52 285.98,-825.12"/>
</g>
<!-- flask_helpers&#45;&gt;flask_blueprints -->
<g id="edge25" class="edge">
<title>flask_helpers&#45;&gt;flask_blueprints</title><style>.edge>path:hover{stroke-width:8}</style>
<path fill="none" stroke="black" d="M290.98,-548.45C302.99,-539.78 317.72,-529.15 330.79,-519.71"/>
<polygon fill="blue" stroke="black" points="332.67,-522.67 338.73,-513.98 328.58,-517 332.67,-522.67"/>
</g>
<!-- flask_helpers&#45;&gt;flask_templating -->
<g id="edge26" class="edge">
<title>flask_helpers&#45;&gt;flask_templating</title><style>.edge>path:hover{stroke-width:8}</style>
<path fill="none" stroke="black" d="M238.28,-548.27C223.62,-539.35 205.61,-528.38 189.84,-518.78"/>
<polygon fill="blue" stroke="black" points="192.01,-516.01 181.65,-513.8 188.37,-521.99 192.01,-516.01"/>
</g>
<!-- flask_json&#45;&gt;flask -->
<g id="edge28" class="edge">
<title>flask_json&#45;&gt;flask</title><style>.edge>path:hover{stroke-width:8}</style>
<path fill="none" stroke="black" d="M483,-493.75C468.33,-461.91 367.92,-439.9 311.43,-429.88"/>
<polygon fill="blue" stroke="black" points="312.36,-426.49 301.91,-428.24 311.17,-433.39 312.36,-426.49"/>
<path fill="none" stroke="black" d="M455.38,-548.49C473.76,-535.29 492.31,-515.96 483,-495.75"/>
</g>
<!-- flask_signals -->
<g id="node10" class="node">
<title>flask_signals</title><style>.edge>path:hover{stroke-width:8}</style>
<ellipse fill="#22e7e7" stroke="black" cx="292" cy="-926.75" rx="41.86" ry="18"/>
<text xml:space="preserve" text-anchor="middle" x="292" y="-922.88" font-family="Helvetica,sans-Serif" font-size="10.00" fill="#000000">flask.signals</text>
</g>
<!-- flask_signals&#45;&gt;flask -->
<g id="edge30" class="edge">
<title>flask_signals&#45;&gt;flask</title><style>.edge>path:hover{stroke-width:8}</style>
<path fill="none" stroke="black" d="M483,-853.75C508.89,-796.19 472.3,-773.95 483,-711.75"/>
</g>
<!-- flask_signals&#45;&gt;flask_app -->
<g id="edge31" class="edge">
<title>flask_signals&#45;&gt;flask_app</title><style>.edge>path:hover{stroke-width:8}</style>
<path fill="none" stroke="black" d="M292,-908.45C292,-901.16 292,-892.48 292,-884.29"/>
<polygon fill="#22e7e7" stroke="black" points="295.5,-884.37 292,-874.37 288.5,-884.37 295.5,-884.37"/>
</g>
<!-- flask_signals&#45;&gt;flask_ctx -->
<g id="edge32" class="edge">
<title>flask_signals&#45;&gt;flask_ctx</title><style>.edge>path:hover{stroke-width:8}</style>
<path fill="none" stroke="black" d="M334.27,-925.87C382.67,-923.33 458.44,-910.34 483,-855.75"/>
<path fill="none" stroke="black" d="M483,-853.75C490.69,-836.67 478.76,-820.07 464.08,-807.32"/>
<polygon fill="#22e7e7" stroke="black" points="466.43,-804.72 456.42,-801.23 462.07,-810.2 466.43,-804.72"/>
</g>
<!-- flask_signals&#45;&gt;flask_helpers -->
<g id="edge33" class="edge">
<title>flask_signals&#45;&gt;flask_helpers</title><style>.edge>path:hover{stroke-width:8}</style>
<path fill="none" stroke="black" d="M127,-709.75C113.3,-654.45 175.06,-611.57 220.93,-587.99"/>
<polygon fill="#22e7e7" stroke="black" points="222.27,-591.24 229.67,-583.65 219.15,-584.97 222.27,-591.24"/>
</g>
<!-- flask_signals&#45;&gt;flask_templating -->
<g id="edge34" class="edge">
<title>flask_signals&#45;&gt;flask_templating</title><style>.edge>path:hover{stroke-width:8}</style>
<path fill="none" stroke="black" d="M127,-709.75C115.8,-643.62 132.55,-565.15 143.6,-524.06"/>
<polygon fill="#22e7e7" stroke="black" points="146.95,-525.06 146.26,-514.49 140.21,-523.19 146.95,-525.06"/>
<path fill="none" stroke="black" d="M268.58,-911.57C221.32,-880.94 119.65,-803.88 127,-711.75"/>
</g>
<!-- flask_templating&#45;&gt;flask -->
<g id="edge35" class="edge">
<title>flask_templating&#45;&gt;flask</title><style>.edge>path:hover{stroke-width:8}</style>
<path fill="none" stroke="black" d="M182.22,-476.27C198.49,-466.86 218.69,-455.17 235.9,-445.21"/>
<polygon fill="blue" stroke="black" points="237.43,-448.37 244.33,-440.34 233.92,-442.31 237.43,-448.37"/>
</g>
<!-- flask_wrappers&#45;&gt;flask -->
<g id="edge37" class="edge">
<title>flask_wrappers&#45;&gt;flask</title><style>.edge>path:hover{stroke-width:8}</style>
<path fill="none" stroke="black" d="M436.24,-620.34C455.66,-608.71 476.66,-591.21 483,-567.75"/>
<path fill="none" stroke="black" d="M483,-565.75C491.12,-535.72 496.02,-524.01 483,-495.75"/>
</g>
<!-- flask_wrappers&#45;&gt;flask_app -->
<g id="edge38" class="edge">
<title>flask_wrappers&#45;&gt;flask_app</title><style>.edge>path:hover{stroke-width:8}</style>
<path fill="none" stroke="black" d="M394,-711.75C394.55,-765.02 346.41,-811.99 316.08,-836.26"/>
<path fill="none" stroke="black" d="M396.98,-656.99C395.81,-668.27 394.49,-683.62 394.1,-698.52"/>
<polygon fill="blue" stroke="black" points="390.6,-698.21 394.01,-708.24 397.6,-698.27 390.6,-698.21"/>
</g>
<!-- flask_wrappers&#45;&gt;flask_blueprints -->
<g id="edge39" class="edge">
<title>flask_wrappers&#45;&gt;flask_blueprints</title><style>.edge>path:hover{stroke-width:8}</style>
<path fill="none" stroke="black" d="M394.71,-620.34C388.77,-596.25 377.99,-552.5 370.91,-523.78"/>
<polygon fill="blue" stroke="black" points="374.37,-523.2 368.58,-514.33 367.57,-524.88 374.37,-523.2"/>
</g>
<!-- flask_wrappers&#45;&gt;flask_ctx -->
<g id="edge40" class="edge">
<title>flask_wrappers&#45;&gt;flask_ctx</title><style>.edge>path:hover{stroke-width:8}</style>
<path fill="none" stroke="black" d="M394,-711.75C394.2,-731.2 404.93,-750.92 414.29,-764.45"/>
</g>
<!-- flask_wrappers&#45;&gt;flask_helpers -->
<g id="edge42" class="edge">
<title>flask_wrappers&#45;&gt;flask_helpers</title><style>.edge>path:hover{stroke-width:8}</style>
<path fill="none" stroke="black" d="M355.89,-614.89C340.99,-606.99 324.33,-598.15 309.49,-590.28"/>
<polygon fill="blue" stroke="black" points="354.22,-617.96 364.69,-619.56 357.5,-611.78 354.22,-617.96"/>
<polygon fill="blue" stroke="black" points="311.36,-587.31 300.89,-585.72 308.08,-593.5 311.36,-587.31"/>
</g>
<!-- flask_wrappers&#45;&gt;flask_json -->
<g id="edge43" class="edge">
<title>flask_wrappers&#45;&gt;flask_json</title><style>.edge>path:hover{stroke-width:8}</style>
<path fill="none" stroke="black" d="M409.76,-609.85C411.6,-605.09 413.5,-600.16 415.33,-595.41"/>
<polygon fill="blue" stroke="black" points="406.55,-608.44 406.22,-619.03 413.08,-610.96 406.55,-608.44"/>
<polygon fill="blue" stroke="black" points="418.52,-596.86 418.86,-586.27 411.99,-594.34 418.52,-596.86"/>
</g>
<!-- M1_material&#45;&gt;run_py -->
<g id="edge44" class="edge">
<title>M1_material&#45;&gt;run_py</title><style>.edge>path:hover{stroke-width:8}</style>
<path fill="none" stroke="black" d="M128.49,-108.89C120.82,-99.18 113.31,-86.32 113,-73"/>
</g>
<!-- M1_material_board&#45;&gt;M1_material -->
<g id="edge45" class="edge">
<title>M1_material_board&#45;&gt;M1_material</title><style>.edge>path:hover{stroke-width:8}</style>
<path fill="none" stroke="black" d="M193.18,-180.7C185.66,-172.47 176.53,-162.48 168.24,-153.42"/>
<polygon fill="blue" stroke="black" points="170.99,-151.24 161.66,-146.22 165.82,-155.96 170.99,-151.24"/>
</g>
<!-- M1_material_board&#45;&gt;run_py -->
<g id="edge46" class="edge">
<title>M1_material_board&#45;&gt;run_py</title><style>.edge>path:hover{stroke-width:8}</style>
<path fill="none" stroke="black" d="M209.42,-180.7C209,-161.23 205.52,-129.65 189,-109 165.65,-79.81 113.86,-110.37 113,-73"/>
</g>
<!-- M1_material_board_pages&#45;&gt;M1_material_board -->
<g id="edge47" class="edge">
<title>M1_material_board_pages&#45;&gt;M1_material_board</title><style>.edge>path:hover{stroke-width:8}</style>
<path fill="none" stroke="black" d="M255.17,-252.58C247.85,-244.24 239.28,-234.48 231.53,-225.66"/>
<polygon fill="blue" stroke="black" points="234.36,-223.57 225.13,-218.37 229.1,-228.19 234.36,-223.57"/>
</g>
</g>
</svg>
